<svg id="Layer_1" data-name="Layer 1" xmlns="http://www.w3.org/2000/svg" viewBox="0 0 50 50">
    <defs>
        <style>
            .cls-1 {
                fill: none;
            }

            .cls-2 {
                fill: #fff;
            }
        </style>
    </defs>
    <rect class="cls-1" width="50" height="50" />
    <path
        d="M150.21,50.51c-6.8-2.51-7.69-5.15-3.58-10.33-4.67-3.42-5.19-9.8-.44-15.33a16.37,16.37,0,0,1,5.11-3.94c.75-.38.9-.64.37-1.45a4,4,0,0,1,.73-5.5,4.14,4.14,0,0,1,5.22,0,3.92,3.92,0,0,1,.77,5.5c-.67.95-.21,1.12.47,1.5,4,2.25,7.14,5.3,8.08,10a8.21,8.21,0,0,1-2.7,8.41c-.69.59-.85,1-.19,1.66a8.05,8.05,0,0,1,1.7,4.76,3,3,0,0,1-1.69,3.14,25.65,25.65,0,0,1-4.45,1.56,65.46,65.46,0,0,0,9.33.5,10.11,10.11,0,0,1,7,2.63c1.23,1.12,1.14,2-.29,2.86a3.38,3.38,0,0,1-2.9.31,19.75,19.75,0,0,0-6.75-.66c-3.56.08-7.11.27-10.61-.61-1-.26-1.93.32-2.91.45-3.93.55-7.88-.05-11.82.23a12.42,12.42,0,0,0-3.1.52,4.15,4.15,0,0,1-2,.18,2.68,2.68,0,0,1-2.31-1.68c-.33-.88.51-1.38,1-1.92,1.84-1.95,4.31-2.18,6.75-2.29A86.43,86.43,0,0,0,150.21,50.51Z"
        transform="translate(-130 -10)" />
    <path class="cls-2"
        d="M155.07,39c-1.56,0-3.12-.12-4.66,0-3.47.32-5.44-2.87-5.59-5.34a9.77,9.77,0,0,1,3.73-8.48c6.1-5,6.85-5,12.88-.06a9.54,9.54,0,0,1,3.7,9.11A5.18,5.18,0,0,1,159.72,39Z"
        transform="translate(-130 -10)" />
    <path class="cls-2"
        d="M174.19,54.94c-6.13-1.81-12.52.37-18.64-1.35a1.63,1.63,0,0,0-.82,0c-3.74,1.17-7.59.61-11.4.68a22.38,22.38,0,0,0-6.26.66,1.33,1.33,0,0,1-1.49-.13c1.12-1.5,2.79-1.6,4.4-1.8,3.58-.44,7.22,0,10.79-.63a.88.88,0,0,0,.16,0c2.73-1.13,5.37-.87,8.22-.08,3.47,1,7.17.35,10.76.7A6.2,6.2,0,0,1,174.19,54.94Z"
        transform="translate(-130 -10)" />
    <path class="cls-2"
        d="M146.64,44c.91-2.61,1.81-3.28,4.17-3.28h9a2.39,2.39,0,0,1,1.86.5c.75.73,1.83,1.52,1.55,2.54-.18.63-1.5.22-2.29.23C156.21,44,151.5,44,146.64,44Z"
        transform="translate(-130 -10)" />
    <path class="cls-2"
        d="M155,45.7c2.49,0,5,0,7.47,0,.47,0,1.2-.37,1.35.48s-.49,1-1,1.31A16.76,16.76,0,0,1,157,48.8a22.24,22.24,0,0,1-8.84-.95,7,7,0,0,1-1.47-.75.89.89,0,0,1-.44-1c.11-.55.59-.4.95-.41C149.76,45.69,152.36,45.7,155,45.7Z"
        transform="translate(-130 -10)" />
    <path class="cls-2"
        d="M157.29,17.08a2.22,2.22,0,0,1-2.12,2.27,2.13,2.13,0,0,1-2.36-2.16,2.24,2.24,0,0,1,2.24-2.32A2.31,2.31,0,0,1,157.29,17.08Z"
        transform="translate(-130 -10)" />
    <path
        d="M155.09,33.69c-.89-.06-1-.66-1-1.3.19-1.35-.26-1.95-1.69-1.74-.62.09-1.3,0-1.35-.85s.66-.95,1.27-.88c1.34.16,2-.27,1.77-1.7-.1-.69,0-1.48.91-1.46s.88.89.79,1.53c-.19,1.39.46,1.74,1.71,1.62.65-.06,1.52-.07,1.46.88s-.84,1-1.54.87c-1.37-.21-1.78.39-1.62,1.66C155.92,32.92,155.9,33.57,155.09,33.69Z"
        transform="translate(-130 -10)" />
</svg>