<svg id="Layer_1" data-name="Layer 1" xmlns="http://www.w3.org/2000/svg" viewBox="0 0 50 50">
    <defs>
        <style>
            .cls-1 {
                fill: none;
            }

            .cls-2 {
                fill: #fff;
            }
        </style>
    </defs>
    <rect class="cls-1" width="50" height="50" />
    <path
        d="M30,28.11c-.37-3.46.72-5.9,3.55-7.55,1-.61.42-1.84.41-2.76s-.92-.52-1.45-.58S31,17.3,31,16.36s.73-1.17,1.5-1.11c1,.08,1.7-.09,1.59-1.38a.92.92,0,0,1,1-1,.84.84,0,0,1,.86,1c-.13,1.25.51,1.52,1.58,1.4.63-.06,1.35,0,1.53.71.32,1.31-.69,1.19-1.53,1.27-.53.05-1.46-.36-1.47.55s-.69,2.16.52,2.84a7,7,0,0,1,3.68,6.74,19.34,19.34,0,0,1,5.64-2,9.94,9.94,0,0,1,8.53,2.77,7.64,7.64,0,0,1,1.32,10,16.39,16.39,0,0,1-5.94,5.7,2.18,2.18,0,0,0-1.21,2.26c.08,2,0,4,0,6a1.8,1.8,0,0,1-1.12,2,29,29,0,0,1-26.41-.11,1.65,1.65,0,0,1-1-1.85c.08-2.26,0-4.53.05-6.8a2.13,2.13,0,0,0-1.1-2,13.09,13.09,0,0,1-5.65-6.54c-2-5.82,3.17-12.17,9.3-11.41A17.55,17.55,0,0,1,30,28.11Z"
        transform="translate(-10 -10)" />
    <path class="cls-2"
        d="M35.94,37.81c0-6.4,7.63-12.11,13.79-10.33,5.36,1.55,7,6.76,3.48,11.05a16.34,16.34,0,0,1-1.75,1.78c-2,1.78-3.89,3.27-6.86,1.52-1.82-1.08-4.15-1.12-6.29-1.38C35.94,40.16,35.93,40.21,35.94,37.81Z"
        transform="translate(-10 -10)" />
    <path class="cls-2"
        d="M34.2,38c0,2.63.21,2.3-2.2,2.4a27.52,27.52,0,0,0-9.07,1.85A2.35,2.35,0,0,1,20.49,42a15.89,15.89,0,0,1-4.08-3.63,6.68,6.68,0,0,1-.28-8.17,6.76,6.76,0,0,1,7.41-2.88c4.73,1.1,8,4,10.35,8.18A5.68,5.68,0,0,1,34.2,38Z"
        transform="translate(-10 -10)" />
    <path class="cls-2" d="M23.47,52.89a30.67,30.67,0,0,1,21.88,0A27.06,27.06,0,0,1,23.47,52.89Z"
        transform="translate(-10 -10)" />
    <path class="cls-2"
        d="M34.39,46.43a30.09,30.09,0,0,1,11.07,1.92c.46.18,1,.27,1.24.75a2,2,0,0,1,0,1.92c-.33.47-.89-.07-1.33-.21a35.36,35.36,0,0,0-21.75-.08c-.48.15-1.23,1.12-1.58,0a1.66,1.66,0,0,1,1-2.3A33.35,33.35,0,0,1,34.39,46.43Z"
        transform="translate(-10 -10)" />
    <path class="cls-2"
        d="M34.43,42.1A27.81,27.81,0,0,1,45.58,44c.55.22,1.23.34,1.25,1.13,0,.49.11,1.1-.14,1.44-.37.52-.89,0-1.33-.16a35.49,35.49,0,0,0-21.86,0c-.47.14-1.19.89-1.46-.05-.22-.78-.36-1.75.81-2.22A28.64,28.64,0,0,1,34.43,42.1Z"
        transform="translate(-10 -10)" />
    <path class="cls-2"
        d="M34.94,33.45a10,10,0,0,1-3.16-6.27,5,5,0,0,1,.3-2.43c.69-1.68,2.13-2.76,3.33-2.54a4.37,4.37,0,0,1,2.83,3.57,6.3,6.3,0,0,1-1.5,5.09A20.69,20.69,0,0,0,34.94,33.45Z"
        transform="translate(-10 -10)" />
</svg>