<svg id="Layer_1" data-name="Layer 1" xmlns="http://www.w3.org/2000/svg" viewBox="0 0 50 50">
    <defs>
        <style>
            .cls-1 {
                fill: none;
            }

            .cls-2 {
                fill: #fff;
            }
        </style>
    </defs>
    <rect class="cls-1" width="50" height="50" />
    <path
        d="M215.51,34.51c-3.46,4.06-8.24,5.9-11.16,10-1.39,1.93-2.67,2-4.42.63a1.79,1.79,0,0,0-1.25-.25c-3-.06-4.49-1.46-4.82-4.38a8.5,8.5,0,0,1,.84-4.83c2.4-4.86,4.77-9.73,8.05-14.09a3.26,3.26,0,0,0,.68-3.33c-.41-1.2-.94-2.92.6-3.74s2.52.57,3.45,1.59c.26.29.46.62.7.93.71.9,1.44,1,2.1,0a10.17,10.17,0,0,1,2.05-2.38c1.44-1.16,2.79-.91,3.1.88.34,2,1.43,2.37,3.13,2.71,8.59,1.74,13.21,7.56,15.54,15.55,2,6.88,2.19,14,2.07,21.06,0,1.16-.71,1.35-1.65,1.35-2.11,0-4.22,0-6.33,0H207.36c-2.08,0-2.32-.23-2.17-2.3a11.54,11.54,0,0,1,3.5-7.33,44,44,0,0,0,4.43-4.72A13.43,13.43,0,0,0,215.51,34.51Z"
        transform="translate(-190 -10)" />
    <path class="cls-2"
        d="M201.88,44c-.14-.77.34-1.25.5-1.81.24-.81.12-1.49-.77-1.7s-1.71-.14-1.9,1c-.1.61.11,1.38-1,1.39s-2.05,0-2.54-1.11a5.23,5.23,0,0,1-.24-4.34,83,83,0,0,1,7.93-14.36c1.16-1.64,2.41-3.22,1.3-5.41-.14-.26,0-.65,0-1.23,1.58,1.05,1.93,3.28,4.47,3.06s2.09-2.9,3.93-3.37c0,0,.19.08.19.13-.05,2.54,1.34,3.21,3.71,3.59,9.2,1.49,13.33,7.93,15.32,16.27a75,75,0,0,1,1.6,16.65c0,1.07-.32,1.4-1.42,1.39q-12.25-.06-24.5,0c-1.32,0-1.51-.49-1.24-1.54a8.79,8.79,0,0,1,1.89-3.83,30.2,30.2,0,0,1,2.53-2.65,16.42,16.42,0,0,0,5.81-13.39c0-1.18.77-2.06.84-3.17,0-.7.34-1.57-.69-1.74s-.93.73-1,1.35a7.69,7.69,0,0,1-2.23,3.82,32.4,32.4,0,0,1-5.78,5A20.19,20.19,0,0,0,203,43.22,1.57,1.57,0,0,1,201.88,44Z"
        transform="translate(-190 -10)" />
    <path
        d="M207.48,24.38a5,5,0,0,1-2,3.35,1.18,1.18,0,0,1-1.91-1.12,4.5,4.5,0,0,1,2.1-3.4C206.51,22.69,207.43,23.25,207.48,24.38Z"
        transform="translate(-190 -10)" />
    <path d="M198.44,36.57c.93.13,1.53.58,1.53,1.48a1.43,1.43,0,1,1-2.85.08C197.07,37.18,197.68,36.79,198.44,36.57Z"
        transform="translate(-190 -10)" />
</svg>