<svg id="Layer_1" data-name="Layer 1" xmlns="http://www.w3.org/2000/svg" viewBox="0 0 50 50">
    <defs>
        <style>
            .cls-1 {
                fill: none;
            }

            .cls-2 {
                fill: #fff;
            }
        </style>
    </defs>
    <rect class="cls-1" width="50" height="50" />
    <path
        d="M328,36.9c-3.22-5-3-8.54,1-12.84.61-.66.32-1.16.19-1.79a6,6,0,1,1,11.73-2.73,3,3,0,0,1,.12,1.78c-.78,1.73.12,2.72,1.18,3.95a8.76,8.76,0,0,1,.54,10.51c-.56.85-.61,1.21.3,1.9,5.49,4.15,7.43,10,7.46,16.59,0,1-.64,1-1.32,1h-13c-5.06,0-10.11,0-15.16,0-1.26,0-1.63-.34-1.57-1.6C319.83,46.8,322.05,40.91,328,36.9Z"
        transform="translate(-310 -10)" />
    <path class="cls-2"
        d="M338.58,37.46c6.71,2.58,9.16,8,10,14.45.13,1,0,1.4-1.1,1.4q-12.4-.06-24.8,0c-2,0-1.25-1.37-1.12-2.18,1-6.13,3.47-11.27,9.93-13.64-.48-.43-.87-.8-1.28-1.16A7.11,7.11,0,0,1,331,24.92c1-.65,1.24-1,.52-2.11a3.86,3.86,0,0,1,.92-5.2,4.25,4.25,0,0,1,5.24-.05,4,4,0,0,1,1,5.22c-.69,1.06-.55,1.46.49,2.14a7.1,7.1,0,0,1,.75,11.4C339.47,36.69,339.06,37,338.58,37.46Z"
        transform="translate(-310 -10)" />
</svg>