<svg id="Layer_1" data-name="Layer 1" xmlns="http://www.w3.org/2000/svg" viewBox="0 0 50 50">
    <defs>
        <style>
            .cls-1 {
                fill: none;
            }

            .cls-2 {
                fill: #fff;
            }
        </style>
    </defs>
    <rect class="cls-1" width="50" height="50" />
    <path
        d="M107,34.42c1.18-1.83,2.37-3.66,3.55-5.5.72-1.11,1.4-2.26,2.15-3.35a1.65,1.65,0,0,0,.11-2.05,3.33,3.33,0,0,1,1.7-4.82,3.53,3.53,0,0,1,4.7,2.16,3.45,3.45,0,0,1-2.65,4.43c-1,.17-1.2.5-1.35,1.41-.68,4.36-1.51,8.71-2.17,13.08a4.94,4.94,0,0,1-1.48,3,16,16,0,0,0-2.14,2.73,2.42,2.42,0,0,0,.13,3.2c1.2,1.38,1.2,3.16,1.7,4.75a2.31,2.31,0,0,1-2.11,2.81,108.36,108.36,0,0,1-28.39,0,2.79,2.79,0,0,1-2.24-4.05,12.86,12.86,0,0,1,2.07-3.74,2.15,2.15,0,0,0,.1-2.76,5.83,5.83,0,0,0-1-1.51c-2.77-2.14-2.88-5.3-3.36-8.34s-1.11-6.31-1.6-9.48c-.11-.73-.32-.95-1.08-1.09a3.47,3.47,0,0,1-2.88-4.42,3.52,3.52,0,0,1,4.66-2.24c2,.84,2.74,2.95,1.64,5.09-.2.39-.49.67-.16,1.18,2,3.14,4,6.31,6.4,9.37,0-4.28,0-8.56,0-12.85,0-.58-.41-.7-.76-.95-2-1.4-2.42-3.54-1-5.25a3.53,3.53,0,0,1,5-.34c1.57,1.44,1.46,3.74-.35,5.35A1,1,0,0,0,86,21.66c1.6,4,3.17,8,4.92,12.45.76-3.73,1.44-7,2.12-10.32a18.28,18.28,0,0,1,.4-2.11,2.4,2.4,0,0,0-.9-3.1c-1.49-1.14-1.29-3.57.1-4.88a3.52,3.52,0,0,1,4.94.14,3.3,3.3,0,0,1-.17,4.88c-1.17.86-1,1.67-.8,2.81.87,4,1.63,8.12,2.48,12.4a20.62,20.62,0,0,0,1.88-4.1c1-2.38,1.94-4.82,3-7.2a1.36,1.36,0,0,0-.42-1.93,3.39,3.39,0,0,1-.12-5.12,3.54,3.54,0,0,1,5.16.43,3.39,3.39,0,0,1-.92,5c-.43.31-.93.45-.92,1.19,0,4,0,8,0,12.06Z"
        transform="translate(-70 -10)" />
    <path class="cls-2"
        d="M94.71,55.3a91.24,91.24,0,0,1-12.9-.7c-1.65-.18-1.57-.51-1.3-2,.46-2.62,2.25-3,4.32-3.15a102.88,102.88,0,0,1,22,.26c1.29.17,1.92.71,1.82,2a2,2,0,0,0,.08.81c.75,1.94.75,1.88-1.44,2.15A90.33,90.33,0,0,1,94.71,55.3Z"
        transform="translate(-70 -10)" />
    <path class="cls-2"
        d="M108.29,43.46a121.65,121.65,0,0,0-21-.47,14.69,14.69,0,0,0-3,.28c-2.23.63-3.63-.42-4.87-2-.59-.78-.34-1,.5-1.14a101.63,101.63,0,0,1,22.25-.79c2.54.19,5.07.51,7.61.77.38,0,.87,0,1,.37s-.2.75-.49,1C109.47,42,109.13,43.38,108.29,43.46Z"
        transform="translate(-70 -10)" />
    <path class="cls-2"
        d="M95,44.44c3.71.22,7.44.11,11.13.6.44.06,1.45-.2.9.76-.37.64,1,2.18-1.16,2A102.31,102.31,0,0,0,84,47.8c-.67.07-1.29,0-.92-.7s-1.33-1.9.67-2.09C87.51,44.64,91.28,44.63,95,44.44Z"
        transform="translate(-70 -10)" />
    <path class="cls-2"
        d="M95.2,24.25q1.2,5.9,2.42,11.8c.17.83,0,1.28-1,1.15a9.84,9.84,0,0,0-1.33,0c-3.14,0-3.14,0-2.52-3q1-5,2-10Z"
        transform="translate(-70 -10)" />
    <path class="cls-2"
        d="M85.5,25.54c1.42,3.62,2.83,7.25,4.28,10.87.31.77.11,1-.66,1-.49,0-1,0-1.49,0-2.53.16-2.53.17-2.53-2.47V25.59Z"
        transform="translate(-70 -10)" />
    <path class="cls-2"
        d="M104.92,26.11c0,3.52,0,7,0,10.56a1.32,1.32,0,0,1-.15.62,17.49,17.49,0,0,1-4.57-.06c-.17-.26,0-.52.06-.78q2.13-5.19,4.24-10.4Z"
        transform="translate(-70 -10)" />
    <path class="cls-2"
        d="M77.44,29.25l5.07,7.93c.15.24.28.64,0,.7a12,12,0,0,1-3.44.41c-.78-.09-.57-1.17-.69-1.84l-1.2-7Z"
        transform="translate(-70 -10)" />
    <path class="cls-2"
        d="M112.86,29.38c-.42,2.65-.85,5.3-1.26,8-.13.8-.45,1.11-1.34,1-3.14-.52-3.15-.49-1.38-3.25l3.71-5.8Z"
        transform="translate(-70 -10)" />
    <path class="cls-2"
        d="M105.79,19.75c-1.08-.12-1.66-.71-1.66-1.62a1.52,1.52,0,0,1,1.69-1.62,1.48,1.48,0,0,1,1.51,1.76A1.51,1.51,0,0,1,105.79,19.75Z"
        transform="translate(-70 -10)" />
    <path class="cls-2"
        d="M95.17,17.78c-1.14,0-1.76-.51-1.77-1.56a1.48,1.48,0,0,1,1.53-1.59,1.51,1.51,0,0,1,1.7,1.6A1.42,1.42,0,0,1,95.17,17.78Z"
        transform="translate(-70 -10)" />
    <path class="cls-2"
        d="M84.3,15.82c1,.22,1.68.78,1.59,1.8a1.48,1.48,0,0,1-1.67,1.45,1.45,1.45,0,0,1-1.53-1.72C82.74,16.34,83.43,16,84.3,15.82Z"
        transform="translate(-70 -10)" />
    <path class="cls-2"
        d="M74.21,23.5a1.53,1.53,0,0,1-1.67-1.57,1.5,1.5,0,0,1,1.69-1.62A1.46,1.46,0,0,1,75.73,22,1.48,1.48,0,0,1,74.21,23.5Z"
        transform="translate(-70 -10)" />
    <path class="cls-2"
        d="M117.51,21.92a1.56,1.56,0,0,1-1.57,1.56A1.44,1.44,0,0,1,114.3,22a1.47,1.47,0,0,1,1.6-1.69C116.87,20.3,117.39,20.93,117.51,21.92Z"
        transform="translate(-70 -10)" />
</svg>