<svg id="Layer_1" data-name="Layer 1" xmlns="http://www.w3.org/2000/svg" viewBox="0 0 50 50">
    <defs>
        <style>
            .cls-1 {
                fill: none;
            }

            .cls-2 {
                fill: #fff;
            }
        </style>
    </defs>
    <rect class="cls-1" width="50" height="50" />
    <path
        d="M275.1,54.92c-5.39,0-10.78,0-16.17,0-1.4,0-2.12-.4-1.95-1.9a11.8,11.8,0,0,0,0-1.33c0-2.52,0-2.57,2.53-2.61,1,0,1.23-.34,1.2-1.26,0-1.6-.32-3.19,1.39-4.42A4,4,0,0,0,263.34,40c-.09-3.76-.11-7.53,0-11.3a3.66,3.66,0,0,0-1.58-3.56c-3.58-2.32-2.12-5.88-2.25-9,0-.69.6-1,1.31-1,1.17,0,2.34.05,3.5,0,1.35-.08,2.35.15,2.23,1.82,0,.56.26.79.81.78.72,0,1.45,0,2.17,0s1.39-.12,1.32-1.15.5-1.48,1.55-1.46c1.77,0,3.55,0,5.33,0,.88,0,1.45.38,1.38,1.26-.09,1.33.65,1.42,1.65,1.34a9.39,9.39,0,0,1,1.5,0c.82.07,1.25-.17,1.21-1.09-.06-1.13.56-1.56,1.67-1.52,1.27.05,2.56,0,3.83,0s1.6.54,1.6,1.62c0,1.77,0,3.54.05,5.32a1.88,1.88,0,0,1-1,1.63c-2.51,1.77-3.29,4.11-3,7.15a75.93,75.93,0,0,1,0,9.3,4.19,4.19,0,0,0,1.41,3.57c1.39,1,1.31,2.2,1.21,3.48-.12,1.44.23,2.18,1.85,1.94,1.43-.21,1.95.49,1.91,1.93-.11,4.31.55,3.89-3.94,3.89Z"
        transform="translate(-250.01 -10)" />
    <path class="cls-2"
        d="M275.09,26.08c2.88,0,5.77,0,8.66,0,.88,0,1.22.12,1.2,1.13-.07,4.1-.06,8.2,0,12.3,0,1.1-.2,1.55-1.44,1.54-5.66-.07-11.33-.06-17,0-1.05,0-1.46-.23-1.44-1.37q.09-6.3,0-12.62c0-.9.31-1,1-1C269.09,26.09,272.09,26.08,275.09,26.08Z"
        transform="translate(-250.01 -10)" />
    <path class="cls-2"
        d="M274.93,46c3.72,0,7.44.07,11.15,0,1.46,0,1.25.79,1.27,1.67s.13,1.68-1.29,1.66c-7.38-.06-14.76-.07-22.13,0-1.47,0-1.24-.82-1.27-1.69S262.53,45.92,264,46C267.61,46.06,271.27,46,274.93,46Z"
        transform="translate(-250.01 -10)" />
    <path class="cls-2"
        d="M274.94,21.52c-4,0-8-.05-12,0-1.35,0-1.8-.43-1.61-1.7a5.75,5.75,0,0,0,0-.83c0-1.94.84-2.52,2.73-2,.75.21.57.74.55,1.18,0,.94.43,1.28,1.32,1.26q2.74,0,5.49,0c.93,0,1.37-.39,1.25-1.3s.44-1.21,1.29-1.15a10.35,10.35,0,0,0,1.67,0c1.06-.08,1.87,0,1.68,1.44-.11.8.49,1,1.19,1h5.66c.84,0,1.24-.38,1.18-1.21-.14-2,1.35-1.06,2.19-1.21,1.24-.23,1.1.67,1.11,1.45,0,3,0,3-3.07,3Z"
        transform="translate(-250.01 -10)" />
    <path class="cls-2"
        d="M275,53c-4.89,0-9.78,0-14.67,0-.69,0-1.62.34-1.59-1s.83-1,1.51-1h29.49c.67,0,1.48-.26,1.51,1s-.89,1-1.59,1C284.78,53,279.89,53,275,53Z"
        transform="translate(-250.01 -10)" />
    <path class="cls-2"
        d="M264.18,44.16a2.63,2.63,0,0,1,3-2.35c5.37.13,10.75,0,16.12.06.53,0,1.18-.22,1.55.32s.95,1.23.84,1.72c-.15.68-1.05.31-1.61.32-6.1,0-12.19,0-18.29,0C265.3,44.24,264.77,44.19,264.18,44.16Z"
        transform="translate(-250.01 -10)" />
    <path class="cls-2" d="M287.07,23.41a3.58,3.58,0,0,1-3.31,2c-5.83-.09-11.66-.1-17.49,0a3.61,3.61,0,0,1-3.33-2Z"
        transform="translate(-250.01 -10)" />
</svg>