<svg id="Layer_1" data-name="Layer 1" xmlns="http://www.w3.org/2000/svg" viewBox="0 0 50 50">
    <defs>
        <style>
            .cls-1 {
                fill: none;
            }

            .cls-2 {
                fill: #fff;
            }
        </style>
    </defs>
    <rect class="cls-1" width="50" height="50" />
    <path
        d="M165.35,103.91h-20.6a4.73,4.73,0,0,1,1.33-3c.38-.5.61-.86-.06-1.33-3-2.06-4-6.58-2.33-10.68a15.53,15.53,0,0,1,6.48-7.34c.65-.4,1.32-.78,2-1.16-1.71-2.84-1.62-4.88.24-6.41a4.17,4.17,0,0,1,5.35.08c1.78,1.56,1.83,3.58.11,6.33a18.63,18.63,0,0,1,7,5.7c2.1,3.08,3,6.37,1.74,10a6.56,6.56,0,0,1-2.38,3.32c-.78.53-.72.88-.17,1.53A5.3,5.3,0,0,1,165.35,103.91Z"
        transform="translate(-129.98 -70)" />
    <path
        d="M160.23,110.36a2.52,2.52,0,0,0,1.88.44c2.66.08,5.32.1,8,.3a9.61,9.61,0,0,1,5.94,2.64c1.07,1,1,1.7-.13,2.55a3,3,0,0,1-2.68.55c-3.59-1-7.26-.68-10.91-.71a22,22,0,0,1-6.76-.6,1.44,1.44,0,0,0-.82,0c-4.09,1.17-8.27.47-12.41.61a17.8,17.8,0,0,0-4.6.59,5.06,5.06,0,0,1-1.64.25,2.83,2.83,0,0,1-2.74-1.55c-.52-1.13.58-1.68,1.19-2.3a7.48,7.48,0,0,1,5.16-1.93c2.72-.16,5.44-.23,8.15-.35a2.83,2.83,0,0,0,2-.41c-2.35-1-5.62-1-5.54-4.6,7.17,0,14.27,0,21.42,0C165.9,108.15,165.24,108.78,160.23,110.36Z"
        transform="translate(-129.98 -70)" />
    <path class="cls-2"
        d="M154.92,100.81h-5.81c-.75,0-1.38-.14-1.34-1s.64-.92,1.31-.92H161c.7,0,1.26.24,1.28,1s-.54,1-1.25,1C159,100.8,157,100.81,154.92,100.81Z"
        transform="translate(-129.98 -70)" />
    <path class="cls-2"
        d="M155,93.83c-.93-.07-1.05-.77-1-1.43.15-1.35-.41-1.77-1.69-1.62-.72.09-1.42-.16-1.45-1,0-1,.81-1.1,1.53-1,1.23.13,1.74-.29,1.6-1.56-.08-.72,0-1.59,1-1.58s1.14.79,1,1.56c-.14,1.21.27,1.73,1.55,1.58.72-.08,1.55,0,1.49,1-.05.89-.77,1-1.45,1-1.41-.21-1.71.46-1.59,1.67C156.12,93.17,155.88,93.78,155,93.83Z"
        transform="translate(-129.98 -70)" />
</svg>