<svg id="Layer_1" data-name="Layer 1" xmlns="http://www.w3.org/2000/svg" viewBox="0 0 50 50">
    <defs>
        <style>
            .cls-1 {
                fill: none;
            }
        </style>
    </defs>
    <rect class="cls-1" width="50" height="50" />
    <path
        d="M48.42,103.05c.15-.8.81-1.12,1.4-1.5a15.81,15.81,0,0,0,5-4.77c3.93-6.23-1-11.17-6-11.44C43.27,85,39.21,87.81,35.93,92c-.3.38-.56.8-.91,1.29a18.13,18.13,0,0,0-8.84-7.11,11.19,11.19,0,0,0-6.85-.61,7.35,7.35,0,0,0-4.84,10.37,13.2,13.2,0,0,0,5.11,5.34c.3.2,1,.28.58.9-.32.43-.69,0-1-.18a16.07,16.07,0,0,1-4.39-4,8.36,8.36,0,0,1-.2-10.2,8.66,8.66,0,0,1,9.31-3.64,18.16,18.16,0,0,1,5.81,2.48,1.67,1.67,0,0,0,.19-1.3,6.06,6.06,0,0,1,3.22-5.78c1.41-.8.79-1.92.82-2.9S33,76,32.42,76,31,75.85,31,75c-.05-1.08.82-1,1.54-1,1.11.12,1.65-.19,1.53-1.41A1,1,0,0,1,35,71.46c.79,0,1.06.57,1,1.24-.16,1.22.5,1.37,1.47,1.3.71-.06,1.65-.14,1.69.84s-.85,1.08-1.67,1.12c-.53,0-1.44-.36-1.42.61s-.55,2,.53,2.73c2.86,2,3.35,2.88,3.78,6.7a14,14,0,0,1,7.6-2,9.39,9.39,0,0,1,8.33,5.45c1.61,3.34.57,6.4-1.74,9-1.69,1.94-3.5,3.83-6.12,4.59Z"
        transform="translate(-9.98 -70)" />
    <path
        d="M36.08,97.28a4.27,4.27,0,0,1,.71-2.89,14.32,14.32,0,0,1,9.64-7c3.46-.73,7,1.19,7.68,4.12.44,1.91-.4,3.47-1.49,4.89a17.5,17.5,0,0,1-5.1,4.19,2,2,0,0,1-1.88,0A24.79,24.79,0,0,0,37.73,99C36.41,98.93,35.68,98.69,36.08,97.28Z"
        transform="translate(-9.98 -70)" />
    <path
        d="M33.94,97.17c.41,1.48-.42,1.75-1.69,1.75a27.33,27.33,0,0,0-8.63,1.55,1.77,1.77,0,0,1-1.68-.17,15.77,15.77,0,0,1-4.76-3.83,5.58,5.58,0,0,1,5.38-9.14,15.14,15.14,0,0,1,10.56,6.85A4,4,0,0,1,33.94,97.17Z"
        transform="translate(-9.98 -70)" />
    <path d="M21.42,112.65c5.73-4,20.29-4,25.89-.05C41.85,116.7,28,116.77,21.42,112.65Z"
        transform="translate(-9.98 -70)" />
    <path
        d="M48.51,110.64A34,34,0,0,0,24,109.19c-.79.24-1.54.61-2.32.88-.44.16-1,.8-1.3.39s-.18-1.39-.14-2.1.67-.26,1-.37a47.09,47.09,0,0,1,5.47-1.89c6.84-1.46,13.52-1.26,20,1.59a2.8,2.8,0,0,0,.3.15C48.69,108.42,48.69,108.42,48.51,110.64Z"
        transform="translate(-9.98 -70)" />
    <path
        d="M48.41,103a7.89,7.89,0,0,1,.14,3.1c-13.47-4-16.09-4-28.23,0-.29-.51-.12-1.07-.17-1.61-.06-.69.15-.83.94-1,2.34-.59,4.52-1.73,7-2.11,6.34-1,12.57-.83,18.55,1.84.63.28,1.31.79,1.84-.17Z"
        transform="translate(-9.98 -70)" />
</svg>