<svg id="Layer_1" data-name="Layer 1" xmlns="http://www.w3.org/2000/svg" viewBox="0 0 50 50">
    <defs>
        <style>
            .cls-1 {
                fill: none;
            }

            .cls-2 {
                fill: #fff;
            }
        </style>
    </defs>
    <rect class="cls-1" width="50" height="50" />
    <path
        d="M215.4,95c-3.43,3.75-8.4,5.66-11.36,9.93-1.1,1.59-2.65,1.51-4,.17a1.11,1.11,0,0,0-.87-.29c-4.28-.21-6.33-3.33-5-7.54A44.64,44.64,0,0,1,198,89.37a50.56,50.56,0,0,1,4.89-7.89c.75-.89,1.32-1.93.56-3.15a.49.49,0,0,1-.05-.16c0-1.3-.85-2.92.83-3.69,1.53-.71,2.4.65,3.3,1.59.31.31.49.75.81,1.05.71.67,1.41.76,2.06-.15a13.29,13.29,0,0,1,1.68-2c1.77-1.66,3.18-1.3,3.6,1.07.25,1.4.78,1.82,2.11,2.05,9.06,1.56,14,7.43,16.42,15.85,2,6.83,2.15,13.85,2,20.89,0,1-.5,1.31-1.45,1.31-9.16,0-18.31,0-27.47,0-2,0-2.2-.16-2.06-2.18a11.34,11.34,0,0,1,3.35-7.22c1.23-1.28,2.51-2.51,3.72-3.81A11.85,11.85,0,0,0,215.4,95Z"
        transform="translate(-189.98 -70)" />
    <path class="cls-2"
        d="M231.93,110.65c-.11-6.6-.27-12.92-2.72-18.88-2-4.91-5.1-8.81-10.46-10.4-.65-.2-1.21-.36-.88-1.35s.78-.92,1.51-.77a15.29,15.29,0,0,1,9.58,6.4c3.06,4.25,4.41,9.14,5.17,14.2a72.3,72.3,0,0,1,.65,14.26c-.07,1.58-1.18,2.24-2.66,1.68-.63-.24-.43-.7-.41-1.1C231.78,113.25,231.87,111.81,231.93,110.65Z"
        transform="translate(-189.98 -70)" />
    <path class="cls-2"
        d="M207.57,84.47a4.38,4.38,0,0,1-2,3.42c-1,.68-2,.12-2-1.12a4.49,4.49,0,0,1,1.87-3.51,1.22,1.22,0,0,1,1.52-.2A1.34,1.34,0,0,1,207.57,84.47Z"
        transform="translate(-189.98 -70)" />
    <path class="cls-2"
        d="M198.56,96.48c1,.2,1.63.64,1.63,1.64a1.45,1.45,0,0,1-1.53,1.6A1.49,1.49,0,0,1,197,98.08C197,97.12,197.7,96.65,198.56,96.48Z"
        transform="translate(-189.98 -70)" />
</svg>