<svg id="Layer_1" data-name="Layer 1" xmlns="http://www.w3.org/2000/svg" viewBox="0 0 50 50">
    <defs>
        <style>
            .cls-1 {
                fill: none;
            }
        </style>
    </defs>
    <rect class="cls-1" width="50" height="50" />
    <path
        d="M335.05,115.16c-4.61,0-9.22,0-13.82,0-1.34,0-1.84-.26-1.75-1.7.43-6.46,2.37-12.14,7.92-16.06.53-.37.53-.64.21-1.19-2.75-4.9-2.4-8.23,1.36-12.12.62-.64.38-1.12.24-1.77a6,6,0,1,1,11.72-2.82,3.24,3.24,0,0,1,.08,2.12c-.65,1.47,0,2.32,1,3.36a8.92,8.92,0,0,1,.72,10.91c-.43.68-.71,1,.17,1.66,5.61,4.13,7.59,10,7.65,16.66,0,1.11-.69.92-1.32.92Z"
        transform="translate(-309.98 -70)" />
</svg>