<svg id="Layer_1" data-name="Layer 1" xmlns="http://www.w3.org/2000/svg" viewBox="0 0 50 50">
    <defs>
        <style>
            .cls-1 {
                fill: none;
            }

            .cls-2 {
                fill: #fff;
            }
        </style>
    </defs>
    <rect class="cls-1" width="50" height="50" />
    <path
        d="M99.09,93.06c1.66-4.32,3.11-8.14,4.6-11.94a1.22,1.22,0,0,0-.34-1.55,3.48,3.48,0,1,1,5.26-4.5,3.36,3.36,0,0,1-1.29,5.07,1.55,1.55,0,0,0-1,1.63c0,3.88,0,7.75,0,11.63.94.06,1-.48,1.23-.79,1.74-2.64,3.43-5.3,5.2-7.92a1.6,1.6,0,0,0,.12-2,3.39,3.39,0,0,1,1.42-4.92,3.47,3.47,0,0,1,4.73,1.76,3.36,3.36,0,0,1-2.14,4.65,1.67,1.67,0,0,0-1.28,1.48c-.86,4.56-1.76,9.11-2.67,13.66a3.42,3.42,0,0,1-.61,1.51c-.62.75-.81,2.08-2.51.71s-4.13-1.47-6.31-1.87A45.55,45.55,0,0,0,81.19,101a2.66,2.66,0,0,0-2,1.51,5.85,5.85,0,0,1-2.32-4c-.74-4.35-1.71-8.67-2.56-13a1.57,1.57,0,0,0-1.22-1.34,3.37,3.37,0,0,1-2.2-4.62,3.48,3.48,0,0,1,4.72-1.82,3.41,3.41,0,0,1,1.47,4.91,1.6,1.6,0,0,0,.08,2c2,2.93,3.89,5.9,6.22,8.81,0-1.68,0-3.35,0-5,0-2.1.12-4.21.23-6.31a1.77,1.77,0,0,0-1.08-2.06,3.33,3.33,0,0,1-1.18-5,3.47,3.47,0,0,1,5-.79,3.42,3.42,0,0,1,.42,5.12,1.55,1.55,0,0,0-.38,2c1.48,3.73,2.91,7.48,4.51,11.62,1-4.63,1.86-8.84,2.75-13,.14-.64-.19-1-.67-1.34a3.43,3.43,0,0,1-.53-5.23,3.48,3.48,0,0,1,5,0,3.44,3.44,0,0,1-.5,5.23c-.47.38-.83.68-.69,1.34C97.22,84.18,98.11,88.39,99.09,93.06Z"
        transform="translate(-69.98 -70)" />
    <path
        d="M110,103.47c0,.41-.37.78-.66,1.17a2.12,2.12,0,0,0-.06,2.64c1.38,1.44,1.16,3.4,2,5.08a2.71,2.71,0,0,0-2.34,0,43.4,43.4,0,0,1-27.92,0c-.21-.07-.42-.15-.64-.2-.64-.17-1.26-.19-1.5.58s.28,1.12.9,1.34a48.47,48.47,0,0,0,8,2,45.17,45.17,0,0,0,22.29-2c.24-.08.49-.13.9-.24a2.87,2.87,0,0,1-2.09,1.65,45.32,45.32,0,0,1-27.95,0c-2.6-.82-3.24-2.26-2.21-4.74a10.64,10.64,0,0,1,1.76-3.15,2.31,2.31,0,0,0,.13-2.92c-.26-.41-.5-.83-.7-1.18A44.11,44.11,0,0,1,110,103.47Z"
        transform="translate(-69.98 -70)" />
    <path class="cls-2"
        d="M95.5,112.44a45.79,45.79,0,0,1-13.9-2c-.71-.21-1.73-.37-1.44-1.42s1.26-.75,2.06-.5a43,43,0,0,0,25.53,0c.1,0,.22,0,.32-.08.76-.36,1.48-.35,1.78.53s-.46,1.16-1.1,1.36a42.08,42.08,0,0,1-7.93,1.76A27.2,27.2,0,0,1,95.5,112.44Z"
        transform="translate(-69.98 -70)" />
    <path class="cls-2"
        d="M95,104.47h11.83c.77,0,1.76-.14,1.77,1s-1,1-1.75,1H83.06c-.8,0-1.73,0-1.69-1.07s.94-.9,1.67-.9Z"
        transform="translate(-69.98 -70)" />
</svg>