<svg id="Layer_1" data-name="Layer 1" xmlns="http://www.w3.org/2000/svg" viewBox="0 0 50 50">
    <defs>
        <style>
            .cls-1 {
                fill: none;
            }

            .cls-2 {
                fill: #fff;
            }
        </style>
    </defs>
    <rect class="cls-1" width="50" height="50" />
    <path
        d="M274.82,114.87H259.16c-2.18,0-2.18,0-2.18-2.25V112c0-2.64,0-2.69,2.64-2.76.92,0,1.15-.37,1.08-1.18,0-.61,0-1.22,0-1.83a2.39,2.39,0,0,1,1-2.23,4.31,4.31,0,0,0,1.64-3.47q-.09-6.48,0-13A3.09,3.09,0,0,0,262.12,85c-1-.93-2.71-1.3-2.72-3.08s.06-3.33,0-5c0-1.38.58-1.89,1.91-1.82a27.11,27.11,0,0,0,3,0c1.33-.06,2.37.12,2.25,1.81-.05.64.41.68.89.68.66,0,1.33,0,2,0,.91.07,1.51-.08,1.42-1.21-.06-.91.52-1.27,1.38-1.27h5.5c.74,0,1.42.25,1.36,1.09-.12,1.46.77,1.44,1.77,1.38a9.38,9.38,0,0,1,1.5,0c.76.06,1.13-.19,1.09-1,0-1.18.66-1.51,1.71-1.48,1.22,0,2.45,0,3.67,0s1.77.58,1.74,1.82c-.05,1.66-.06,3.32,0,5a2.08,2.08,0,0,1-1.31,1.94,5.32,5.32,0,0,0-2.68,5.49c.26,3.53.1,7.09.05,10.63a4.83,4.83,0,0,0,2,4.26c1,.75.63,1.85.56,2.77-.14,1.66.3,2.48,2.12,2.17,1.21-.21,1.68.37,1.65,1.6-.11,4.77.64,4-4,4.07S279.55,114.87,274.82,114.87Z"
        transform="translate(-249.99 -70)" />
    <path class="cls-2"
        d="M274.82,83.17H261.66a6.32,6.32,0,0,1-1.31-.1.61.61,0,0,1-.53-.72.9.9,0,0,1,.53-.55,6.67,6.67,0,0,1,1.48-.12h27c.56,0,1.29,0,1.33.67.05.84-.72.82-1.34.82Z"
        transform="translate(-249.99 -70)" />
    <path class="cls-2"
        d="M275,108.85c4.11,0,8.22,0,12.32,0,.59,0,1.56-.33,1.56.68s-.9.61-1.46.61H262.59c-.55,0-1.45.27-1.47-.6s1-.69,1.54-.69C266.77,108.83,270.88,108.85,275,108.85Z"
        transform="translate(-249.99 -70)" />
    <path class="cls-2"
        d="M275.18,103.8c3.65,0,7.31,0,11,0,.55,0,1.41-.27,1.44.64s-.83.7-1.39.7H263.76c-.57,0-1.4.2-1.36-.74s.81-.6,1.31-.6C267.54,103.79,271.36,103.8,275.18,103.8Z"
        transform="translate(-249.99 -70)" />
    <path class="cls-2"
        d="M275,86.22c-3.32,0-6.65,0-10,0-.51,0-1.28.24-1.34-.56-.07-1,.79-.73,1.34-.73q10,0,20,0c.5,0,1.27-.24,1.33.57.07,1-.79.72-1.34.72C281.64,86.24,278.32,86.22,275,86.22Z"
        transform="translate(-249.99 -70)" />
    <path class="cls-2"
        d="M274.9,102.66c-3.27,0-6.55,0-9.82,0-.55,0-1.4.21-1.39-.71s.85-.69,1.41-.69q9.9,0,19.8,0c.57,0,1.4-.21,1.39.71s-.86.69-1.41.69C281.56,102.67,278.23,102.66,274.9,102.66Z"
        transform="translate(-249.99 -70)" />
</svg>